<svg width="42" height="42" viewBox="0 0 42 42" fill="none" xmlns="http://www.w3.org/2000/svg">
<path fill-rule="evenodd" clip-rule="evenodd" d="M20.8333 10.5285C15.0505 10.5285 10.3619 15.2164 10.3619 20.9999C10.3619 26.7826 15.0505 31.4705 20.8333 31.4705C24.0476 31.4705 26.923 30.0217 28.8438 27.742L36.7714 34.4146C32.9497 38.9504 27.2285 41.8331 20.8333 41.8331C9.32701 41.8331 0 32.5054 0 20.9999C0 9.49359 9.32701 0.16658 20.8333 0.16658V10.5285ZM38.8348 31.4905L29.8807 26.2725C30.1864 25.7494 30.448 25.1975 30.6602 24.6218L40.3858 28.2063C39.9634 29.352 39.4426 30.4498 38.8348 31.4905ZM31.3041 20.9998H41.6667C41.6667 19.7657 41.5586 18.5569 41.3528 17.3817L31.1464 19.1814C31.2498 19.7721 31.3041 20.3796 31.3041 20.9998ZM36.8477 7.67489L28.8823 14.3026C28.4923 13.8342 28.0619 13.4007 27.597 13.0068L34.29 5.09695C35.2153 5.8807 36.0715 6.7431 36.8477 7.67489Z" fill="#FF671D"/>
</svg>
