<?xml version="1.0" standalone="no"?>
<!DOCTYPE svg PUBLIC "-//W3C//DTD SVG 20010904//EN"
 "http://www.w3.org/TR/2001/REC-SVG-20010904/DTD/svg10.dtd">
<svg version="1.0" xmlns="http://www.w3.org/2000/svg"
 width="741.000000pt" height="326.000000pt" viewBox="0 0 741.000000 326.000000"
 preserveAspectRatio="xMidYMid meet">

<g transform="translate(0.000000,326.000000) scale(0.100000,-0.100000)"
fill="#000000" stroke="none">
<path d="M3425 2866 c-372 -159 -365 -156 -365 -166 0 -6 9 -10 20 -10 16 0
20 -7 20 -35 0 -28 4 -35 20 -35 15 0 20 -7 20 -25 0 -18 5 -25 20 -25 15 0
20 -7 20 -25 0 -14 7 -28 15 -31 23 -9 23 -534 0 -534 -9 0 -15 -9 -15 -24 0
-15 -7 -26 -20 -29 -14 -3 -20 -14 -20 -31 0 -16 -6 -26 -14 -26 -9 0 -16 -12
-18 -32 -2 -26 -8 -34 -26 -36 -21 -3 -23 -8 -20 -50 l3 -47 638 -3 637 -2 0
49 c0 44 -3 50 -22 53 -18 2 -24 11 -26 36 -2 20 -9 32 -18 32 -8 0 -14 10
-14 26 0 17 -6 28 -20 31 -13 3 -20 14 -20 28 0 13 -7 25 -15 29 -23 8 -23
521 0 530 8 3 15 17 15 31 0 18 5 25 20 25 15 0 20 7 20 25 0 14 5 25 10 25 6
0 10 16 10 35 0 32 2 35 31 35 53 0 27 22 -82 68 -57 24 -198 84 -313 133
-115 49 -214 89 -220 88 -6 -1 -128 -51 -271 -113z m513 -15 c130 -55 253
-107 272 -115 32 -14 -13 -15 -510 -15 l-545 0 270 114 c149 63 271 114 273
115 1 0 109 -45 240 -99z m312 -181 c0 -20 -7 -20 -560 -20 -553 0 -560 0
-560 20 0 20 7 20 560 20 553 0 560 0 560 -20z m-875 -65 c0 -16 -197 -13
-203 3 -3 10 19 12 100 10 60 -2 103 -7 103 -13z m195 -9 c0 -15 7 -26 20 -29
13 -3 20 -14 20 -30 0 -14 4 -27 10 -29 14 -4 15 -521 1 -526 -6 -2 -11 -14
-11 -27 0 -14 -7 -25 -19 -28 -11 -2 -21 -15 -23 -28 -3 -23 -6 -24 -83 -22
-78 1 -80 2 -83 27 -2 14 -10 26 -17 26 -8 0 -17 11 -21 25 -3 14 -10 25 -15
25 -5 0 -9 116 -9 265 0 170 4 265 10 265 6 0 10 7 10 15 0 8 9 24 20 35 11
11 20 29 20 40 0 18 7 20 85 20 83 0 85 -1 85 -24z m230 12 c0 -10 -27 -13
-100 -13 -73 0 -100 3 -100 13 0 9 27 12 100 12 73 0 100 -3 100 -12z m200
-12 c0 -16 7 -27 20 -31 13 -4 20 -15 20 -31 0 -13 5 -24 10 -24 6 0 10 -95
10 -265 0 -170 -4 -265 -10 -265 -5 0 -10 -11 -10 -25 0 -18 -5 -25 -19 -25
-14 0 -21 -8 -23 -26 -3 -25 -5 -26 -83 -27 -80 -1 -80 0 -83 26 -2 19 -9 27
-23 27 -14 0 -19 7 -19 25 0 14 -4 25 -10 25 -6 0 -10 95 -10 265 0 157 4 265
9 265 5 0 11 12 13 28 2 16 9 27 18 27 9 0 16 11 18 28 l3 27 85 0 c82 0 84 0
84 -24z m230 12 c0 -17 -193 -15 -198 1 -2 7 30 11 97 11 74 0 101 -3 101 -12z
m-907 -47 c9 -1 17 -5 17 -11 0 -6 -28 -10 -65 -10 -49 0 -65 3 -65 14 0 11
12 14 48 11 26 -2 55 -3 65 -4z m435 -9 c3 -9 -13 -12 -57 -12 -54 0 -71 6
-56 22 11 10 109 2 113 -10z m430 1 c3 -10 -14 -13 -62 -13 -62 0 -88 13 -48
23 33 9 105 2 110 -10z m-878 -308 l0 -265 -35 0 -35 0 0 265 0 265 35 0 35 0
0 -265z m430 0 l0 -265 -40 0 -40 0 0 265 0 265 40 0 40 0 0 -265z m428 3 l-3
-263 -37 -3 -38 -3 0 265 0 266 40 0 41 0 -3 -262z m-828 -308 c0 -6 -28 -10
-65 -10 -37 0 -65 4 -65 10 0 6 28 10 65 10 37 0 65 -4 65 -10z m420 0 c0 -6
-27 -10 -60 -10 -33 0 -60 4 -60 10 0 6 27 10 60 10 33 0 60 -4 60 -10z m430
0 c0 -6 -28 -10 -65 -10 -37 0 -65 4 -65 10 0 6 28 10 65 10 37 0 65 -4 65
-10z m-815 -54 c0 -9 -169 -16 -192 -8 -7 2 -13 8 -13 13 0 6 44 8 103 7 56
-2 102 -7 102 -12z m425 4 c0 -6 -30 -10 -67 -11 -38 0 -83 -2 -100 -3 -23 -3
-33 1 -33 10 0 11 22 14 100 14 60 0 100 -4 100 -10z m430 -3 c0 -9 -25 -13
-100 -12 -73 0 -100 3 -100 13 0 9 27 12 100 12 75 0 100 -3 100 -13z m25 -64
c0 -17 -30 -18 -553 -21 -500 -2 -553 -1 -559 14 -3 9 -1 19 5 23 5 3 257 5
559 4 518 -2 548 -3 548 -20z m55 -73 c0 -20 -8 -20 -610 -20 l-610 0 0 23 0
22 610 -3 c601 -2 610 -3 610 -22z"/>
<path d="M3669 2899 c-52 -19 -61 -102 -16 -134 32 -22 74 -18 102 10 41 40
26 106 -28 125 -16 5 -30 10 -31 9 -1 0 -13 -5 -27 -10z m65 -35 c32 -32 11
-84 -34 -84 -29 0 -50 22 -50 54 0 20 28 46 50 46 10 0 26 -7 34 -16z"/>
<path d="M2090 2290 c0 -433 0 -440 20 -440 20 0 20 7 20 420 l0 420 305 0
c298 0 305 0 305 20 0 20 -7 20 -325 20 l-325 0 0 -440z"/>
<path d="M4680 2710 c0 -20 7 -20 305 -20 l305 0 0 -420 c0 -413 0 -420 20
-420 20 0 20 7 20 440 l0 440 -325 0 c-318 0 -325 0 -325 -20z"/>
<path d="M5373 1489 c-39 -11 -73 -52 -73 -88 0 -41 25 -68 93 -102 80 -40 97
-56 97 -91 0 -81 -120 -91 -150 -12 -11 29 -35 31 -49 5 -21 -38 34 -71 120
-71 69 0 117 22 133 61 26 62 -6 113 -87 140 -60 20 -87 45 -87 82 0 18 4 37
8 43 14 21 51 34 81 28 23 -5 33 -14 41 -40 15 -45 30 -43 30 5 0 32 -4 40
-22 45 -32 8 -97 6 -135 -5z"/>
<path d="M740 1479 c-81 -33 -127 -110 -117 -199 8 -62 29 -96 80 -121 46 -24
165 -36 217 -22 31 8 35 13 38 46 4 43 -14 50 -24 10 -9 -38 -20 -43 -85 -43
-98 0 -147 53 -148 160 -1 111 78 183 178 162 27 -6 37 -15 45 -39 18 -51 26
-50 26 5 l0 52 -92 -1 c-51 0 -104 -5 -118 -10z"/>
<path d="M1081 1323 c-46 -117 -70 -167 -83 -171 -36 -9 -17 -22 32 -22 28 0
50 5 50 10 0 6 -6 10 -14 10 -25 0 -26 16 -5 69 l22 51 62 0 62 0 22 -56 c25
-66 25 -64 7 -64 -8 0 -18 -4 -21 -10 -4 -6 22 -10 69 -10 44 0 76 4 76 10 0
6 -8 10 -17 10 -14 0 -35 42 -88 170 -92 223 -89 223 -174 3z m105 -9 c6 -23
4 -24 -45 -24 -28 0 -51 2 -51 4 0 2 7 21 16 42 9 22 21 50 26 64 10 25 11 24
29 -19 11 -24 22 -54 25 -67z"/>
<path d="M1390 1481 l25 -7 3 -161 c2 -159 2 -161 -20 -168 -20 -7 -18 -9 15
-12 20 -2 54 -2 75 0 31 3 34 5 15 11 -20 7 -22 14 -20 79 l2 72 55 6 c92 10
123 35 123 101 0 33 -6 47 -27 65 -25 21 -35 23 -149 22 -67 -1 -111 -4 -97
-8z m178 -17 c16 -11 22 -25 22 -55 0 -22 -4 -49 -10 -59 -11 -20 -74 -45 -90
-35 -11 7 -14 148 -3 158 12 12 58 7 81 -9z"/>
<path d="M1718 1480 c22 -9 22 -13 22 -170 0 -133 -2 -160 -14 -160 -8 0 -18
-4 -21 -10 -4 -6 23 -10 75 -10 52 0 79 4 75 10 -3 6 -15 10 -26 10 -18 0 -19
8 -19 159 l0 159 28 10 c22 8 11 10 -58 11 -60 0 -79 -3 -62 -9z"/>
<path d="M1890 1450 c0 -48 7 -51 21 -10 10 28 15 30 57 30 l47 0 0 -160 c0
-144 -2 -160 -17 -160 -9 0 -20 -4 -23 -10 -4 -6 23 -10 74 -10 47 0 81 4 81
10 0 6 -11 10 -25 10 l-25 0 0 160 0 160 50 0 c35 0 50 -4 50 -13 0 -7 7 -22
15 -33 13 -18 14 -16 15 24 l0 42 -160 0 -160 0 0 -40z"/>
<path d="M2290 1324 c-45 -118 -69 -168 -82 -172 -38 -10 -16 -22 40 -22 52 1
55 2 38 15 -10 8 -23 16 -27 17 -5 2 0 26 10 53 l19 50 64 3 65 3 21 -56 c26
-67 26 -65 8 -65 -8 0 -18 -4 -21 -10 -4 -7 71 -10 218 -10 l225 0 4 40 c4 47
-9 53 -25 10 -11 -29 -13 -30 -79 -30 l-68 0 0 160 c0 157 0 161 23 170 16 6
-3 9 -63 9 -69 -1 -80 -3 -57 -11 l27 -10 0 -158 0 -158 -25 -4 c-62 -12 -66
-7 -140 173 -92 223 -90 222 -175 3z m106 -10 c6 -23 4 -24 -45 -24 -28 0 -51
2 -51 4 0 2 7 21 16 42 9 22 21 50 26 64 10 25 11 24 29 -19 11 -24 22 -54 25
-67z"/>
<path d="M3038 1480 c22 -9 22 -13 22 -170 0 -153 -1 -160 -20 -160 -11 0 -20
-5 -20 -10 0 -6 72 -10 200 -10 119 1 200 5 200 11 0 5 -6 9 -14 9 -25 0 -28
18 -9 70 l18 51 64 -3 65 -3 22 -55 22 -55 -21 -10 c-19 -8 -16 -10 21 -13 23
-2 59 -1 80 1 31 3 34 5 15 11 -14 5 -31 30 -49 74 -104 249 -113 267 -132
270 -16 3 -28 -21 -81 -153 -33 -86 -61 -160 -61 -164 0 -4 -11 -13 -25 -19
-24 -11 -25 -10 -25 23 0 43 -13 45 -30 5 -12 -29 -14 -30 -81 -30 l-69 0 2
162 3 162 25 7 c15 4 -10 7 -60 7 -60 1 -78 -2 -62 -8z m461 -102 c38 -90 39
-88 -18 -88 -28 0 -51 3 -51 7 0 10 44 123 48 123 1 0 11 -19 21 -42z"/>
<path d="M3661 1475 c20 -11 36 -39 64 -107 110 -277 114 -281 154 -175 13 34
33 82 43 107 l20 45 42 -105 c59 -148 63 -146 141 59 45 122 67 166 82 172 11
4 24 4 30 1 6 -4 38 -49 72 -101 59 -90 61 -96 61 -157 0 -57 -2 -64 -19 -64
-11 0 -23 -4 -26 -10 -4 -6 23 -10 75 -10 52 0 79 4 75 10 -3 6 -13 10 -21 10
-11 0 -14 16 -14 74 0 71 2 78 50 159 31 52 58 88 72 92 21 7 20 8 -10 12 -18
2 -45 2 -60 0 -26 -4 -26 -4 -4 -12 12 -4 22 -9 22 -12 0 -7 -82 -143 -86
-143 -7 0 -94 135 -94 147 0 6 8 14 18 16 9 3 -38 5 -106 6 -80 1 -121 -3
-117 -9 3 -5 13 -10 21 -10 8 0 14 -4 14 -10 0 -8 -29 -90 -82 -230 -9 -22
-15 -11 -62 105 -52 128 -52 130 -32 142 18 10 8 12 -59 12 -56 0 -73 -3 -58
-9 12 -5 31 -30 42 -55 l21 -47 -34 -86 c-38 -99 -28 -106 -96 63 -45 112 -47
122 -22 128 9 3 -19 5 -63 5 -75 1 -78 0 -54 -13z"/>
<path d="M4613 1478 l27 -10 0 -159 c0 -152 -1 -159 -20 -159 -11 0 -20 -4
-20 -10 0 -6 53 -10 139 -10 135 0 139 1 145 23 15 58 -3 79 -24 27 -12 -29
-14 -30 -81 -30 l-69 0 0 80 0 80 54 0 c46 0 56 -3 61 -20 11 -35 25 -22 25
24 0 48 -15 69 -25 36 -5 -17 -15 -20 -61 -20 l-54 0 0 70 0 70 60 0 c55 0 61
-2 70 -25 14 -36 30 -31 30 10 l0 35 -142 -1 c-108 0 -136 -3 -115 -11z"/>
<path d="M4943 1483 l27 -4 0 -165 c0 -136 -2 -164 -14 -164 -8 0 -18 -4 -21
-10 -4 -6 22 -10 69 -10 44 0 76 4 76 10 0 6 -9 10 -20 10 -19 0 -21 5 -18 78
l3 77 30 -3 c42 -5 48 -13 60 -89 13 -82 36 -101 101 -88 l39 8 -30 6 c-28 6
-30 10 -37 59 -7 59 -37 101 -72 103 -15 0 -11 4 14 13 37 14 70 57 70 94 0
13 -13 37 -29 53 l-29 29 -124 -1 c-68 -1 -111 -4 -95 -6z m168 -14 c29 -15
40 -51 28 -93 -11 -39 -33 -56 -73 -56 -26 0 -26 1 -26 80 0 79 0 80 26 80 14
0 34 -5 45 -11z"/>
<path d="M5740 1481 l25 -7 3 -162 c2 -157 2 -162 -18 -162 -11 0 -20 -4 -20
-10 0 -6 53 -10 139 -10 l139 0 6 31 c8 42 8 49 -3 49 -5 0 -14 -13 -21 -30
-12 -29 -14 -30 -81 -30 l-69 0 2 162 3 162 25 7 c14 4 -14 7 -65 7 -51 0 -79
-3 -65 -7z"/>
<path d="M6000 1448 c1 -40 2 -42 15 -24 8 11 15 26 15 33 0 9 15 13 50 13
l50 0 0 -160 c0 -152 -1 -160 -19 -160 -11 0 -23 -4 -26 -10 -4 -6 23 -10 75
-10 52 0 79 4 75 10 -3 6 -13 10 -21 10 -12 0 -14 27 -14 160 l0 160 44 0 c40
0 45 -3 55 -30 14 -41 21 -38 21 10 l0 40 -160 0 -160 0 0 -42z"/>
<path d="M6370 1482 l25 -8 3 -162 c2 -155 2 -162 -17 -162 -11 0 -23 -5 -27
-11 -5 -9 27 -11 123 -7 113 4 135 8 173 29 62 34 83 68 88 138 3 47 0 69 -17
105 -34 68 -67 80 -236 83 -77 1 -129 -1 -115 -5z m238 -29 c69 -43 70 -217 3
-277 -15 -13 -41 -21 -81 -24 l-60 -4 0 160 c0 119 3 162 13 166 20 9 100 -4
125 -21z"/>
<path d="M150 1000 l0 -30 3555 0 3555 0 0 30 0 30 -3555 0 -3555 0 0 -30z"/>
<path d="M2606 850 c-52 -16 -76 -48 -76 -102 0 -75 38 -103 131 -96 42 3 44
4 47 38 2 19 9 38 15 42 7 4 -6 7 -28 7 -22 0 -34 -3 -27 -6 6 -2 12 -20 12
-39 0 -32 -2 -34 -34 -34 -54 0 -81 29 -81 88 0 56 20 87 62 95 36 7 59 -2 71
-26 10 -21 11 -21 11 4 1 37 -39 48 -103 29z"/>
<path d="M2940 853 c-12 -3 -14 -18 -12 -80 l4 -77 -62 75 c-86 103 -96 102
-92 -6 2 -57 -1 -91 -8 -101 -10 -12 -8 -14 16 -14 19 0 25 3 16 9 -9 5 -12
29 -10 81 l3 74 68 -82 c38 -45 73 -82 77 -82 6 0 15 119 15 206 0 0 -7 -1
-15 -3z"/>
<path d="M3623 849 c-41 -12 -73 -53 -73 -95 0 -75 40 -108 126 -102 48 3 49
4 52 38 2 19 9 38 15 42 7 4 -6 7 -28 7 -22 0 -34 -3 -27 -6 6 -2 12 -20 12
-39 0 -31 -2 -34 -31 -34 -44 0 -66 15 -79 55 -21 63 6 121 60 126 44 4 57 -1
68 -23 11 -23 11 -23 11 3 1 37 -38 48 -106 28z"/>
<path d="M4084 850 c-35 -14 -54 -50 -54 -101 0 -40 4 -51 31 -73 17 -14 38
-26 47 -25 12 0 10 3 -6 9 -51 21 -57 149 -8 182 20 14 56 8 76 -12 16 -16 20
-33 20 -79 0 -53 -3 -62 -27 -82 -17 -13 -21 -20 -10 -16 10 4 23 7 28 7 15 0
49 63 49 92 0 78 -74 127 -146 98z"/>
<path d="M4268 851 c10 -6 13 -33 10 -105 l-3 -96 30 1 c17 0 24 3 18 6 -8 3
-13 23 -13 49 0 40 2 44 25 44 27 0 45 -25 45 -62 0 -30 17 -48 44 -48 19 1
19 1 4 11 -10 5 -18 22 -18 36 0 15 -10 37 -22 50 -19 20 -19 23 -4 23 19 0
35 35 28 63 -5 19 -41 38 -70 36 -10 0 -6 -5 11 -11 48 -17 32 -88 -20 -88
-21 0 -23 5 -23 44 0 31 -5 46 -16 50 -24 9 -42 7 -26 -3z"/>
<path d="M4774 850 c-35 -14 -54 -50 -54 -101 0 -40 4 -51 31 -73 17 -14 38
-26 47 -25 12 0 10 3 -6 9 -29 12 -45 55 -39 108 8 75 63 106 107 62 16 -16
20 -33 20 -79 0 -52 -3 -62 -26 -80 -28 -22 -17 -29 17 -11 24 13 49 61 49 94
0 76 -75 125 -146 96z"/>
<path d="M2270 756 c0 -82 -2 -95 -17 -99 -10 -3 2 -5 27 -5 25 0 39 2 33 5
-8 3 -13 23 -13 49 0 42 2 44 28 44 15 0 33 -5 40 -12 9 -9 12 -5 11 18 0 16
-3 23 -6 17 -2 -7 -20 -13 -39 -13 -34 0 -34 0 -34 45 0 33 -4 45 -15 45 -12
0 -15 -17 -15 -94z"/>
<path d="M2376 835 c4 -8 8 -15 10 -15 2 0 4 7 4 15 0 8 -4 15 -10 15 -5 0 -7
-7 -4 -15z"/>
<path d="M2440 756 c0 -66 -4 -96 -12 -99 -7 -3 7 -5 32 -5 25 0 37 2 28 5
-16 4 -18 17 -18 99 0 77 -3 94 -15 94 -12 0 -15 -17 -15 -94z"/>
<path d="M2990 828 c0 -19 2 -20 10 -8 13 19 13 30 0 30 -5 0 -10 -10 -10 -22z"/>
<path d="M3068 756 c3 -84 1 -95 -15 -99 -10 -3 2 -5 27 -5 25 0 39 2 33 5 -9
3 -13 33 -13 99 0 83 -2 94 -17 94 -16 0 -18 -10 -15 -94z"/>
<path d="M3150 843 c0 -5 5 -15 10 -23 8 -12 10 -11 10 8 0 12 -4 22 -10 22
-5 0 -10 -3 -10 -7z"/>
<path d="M3218 756 c3 -84 1 -95 -15 -99 -10 -3 2 -5 27 -5 25 0 39 2 33 5 -9
3 -13 33 -13 99 0 83 -2 94 -17 94 -16 0 -18 -10 -15 -94z"/>
<path d="M3328 763 c3 -74 1 -89 -14 -100 -16 -12 -14 -13 17 -13 21 0 29 3
21 9 -9 5 -12 29 -10 81 l3 72 68 -81 c37 -44 71 -81 75 -81 4 0 6 39 5 88 0
48 3 93 9 100 8 9 4 12 -18 12 -19 0 -25 -3 -16 -9 9 -5 12 -28 10 -75 l-3
-68 -60 76 c-81 101 -91 100 -87 -11z"/>
<path d="M3870 756 c0 -66 -4 -96 -12 -99 -7 -3 7 -5 32 -5 25 0 37 2 27 5
-15 4 -18 13 -15 46 4 41 5 42 41 42 20 0 37 5 37 10 0 6 -17 9 -40 7 l-40 -4
3 46 c2 38 0 46 -15 46 -16 0 -18 -11 -18 -94z"/>
<path d="M3980 841 c0 -6 5 -13 10 -16 6 -3 10 1 10 9 0 9 -4 16 -10 16 -5 0
-10 -4 -10 -9z"/>
<path d="M4560 791 c45 -67 55 -126 23 -134 -10 -3 2 -5 27 -5 25 0 39 2 33 5
-24 9 -15 90 13 136 15 23 32 45 38 49 6 5 1 8 -11 8 -13 0 -22 -4 -20 -8 3
-11 -35 -82 -44 -82 -4 0 -20 20 -36 45 -16 26 -36 45 -46 45 -15 0 -10 -11
23 -59z"/>
<path d="M4970 767 c0 -99 12 -117 78 -117 61 0 72 17 72 110 0 53 4 80 13 83
7 3 5 6 -5 6 -16 1 -18 -9 -18 -75 0 -93 -10 -114 -53 -114 -50 0 -57 14 -57
107 0 67 -3 83 -15 83 -12 0 -15 -16 -15 -83z"/>
<path d="M2090 400 l0 -190 1620 0 1620 0 0 190 c0 183 -1 190 -20 190 -19 0
-20 -7 -20 -165 l0 -165 -1580 0 -1580 0 0 165 c0 158 -1 165 -20 165 -19 0
-20 -7 -20 -190z"/>
</g>
</svg>
