<svg width="40" height="40" viewBox="0 0 40 40" fill="none" xmlns="http://www.w3.org/2000/svg">
<path d="M26.1786 17.8452C26.8295 17.1944 26.8295 16.1391 26.1786 15.4882C25.5277 14.8373 24.4725 14.8373 23.8216 15.4882L26.1786 17.8452ZM18.2162 23.2318L19.3075 21.9721L19.3075 21.9721L18.2162 23.2318ZM16.0915 19.1857C15.3958 18.583 14.3432 18.6583 13.7405 19.354C13.1377 20.0497 13.2131 21.1023 13.9087 21.705L16.0915 19.1857ZM12.8111 6.29535L12.599 4.64224L12.8111 6.29535ZM13.8679 6.11732L14.3391 7.71597L13.8679 6.11732ZM15.3928 5.226L16.4117 6.54493H16.4117L15.3928 5.226ZM14.5197 5.84733L13.7225 4.38368L14.5197 5.84733ZM6.51202 11.123L8.16513 11.3352L6.51202 11.123ZM7.12599 8.35197L8.57045 9.18342L7.12599 8.35197ZM11.1231 6.51198L11.3352 8.16509L11.1231 6.51198ZM8.35202 7.12594L9.18346 8.5704L8.35202 7.12594ZM5.22604 15.3927L3.9071 14.3738L3.9071 14.3738L5.22604 15.3927ZM5.84738 14.5196L4.38372 13.7224L5.84738 14.5196ZM6.29539 12.8111L4.64228 12.5989L6.29539 12.8111ZM6.11737 13.8678L7.71602 14.3391L6.11737 13.8678ZM4.1856 23.2606L5.50454 22.2417H5.50454L4.1856 23.2606ZM2.66029 20.867L4.2696 20.4335L2.66029 20.867ZM4.1856 16.7395L5.50454 17.7584L5.50454 17.7584L4.1856 16.7395ZM2.66029 19.1331L4.2696 19.5666L2.66029 19.1331ZM6.29539 27.189L4.64228 27.4012L6.29539 27.189ZM6.11737 26.1323L4.51872 26.6036L6.11737 26.1323ZM5.22604 24.6074L3.9071 25.6263H3.9071L5.22604 24.6074ZM5.84738 25.4805L7.31104 24.6833L5.84738 25.4805ZM11.1231 33.4881L11.3352 31.835H11.3352L11.1231 33.4881ZM8.35202 32.8742L9.18346 31.4297L8.35202 32.8742ZM6.51202 28.8771L8.16513 28.6649L6.51202 28.8771ZM7.12599 31.6481L5.68152 32.4796H5.68153L7.12599 31.6481ZM15.3928 34.7741L16.4117 33.4552H16.4117L15.3928 34.7741ZM14.5197 34.1528L15.3168 32.6891L14.5197 34.1528ZM12.8111 33.7048L12.599 35.3579H12.599L12.8111 33.7048ZM13.8679 33.8828L14.3391 32.2841L13.8679 33.8828ZM23.2606 35.8146L24.2795 37.1335L23.2606 35.8146ZM20.867 37.3399L20.4336 35.7306L20.867 37.3399ZM16.7396 35.8146L15.7207 37.1335H15.7207L16.7396 35.8146ZM19.1332 37.3399L19.5666 35.7306L19.1332 37.3399ZM27.1891 33.7048L27.4012 35.3579H27.4012L27.1891 33.7048ZM26.1323 33.8828L25.6611 32.2841L26.1323 33.8828ZM24.6074 34.7741L23.5885 33.4552H23.5885L24.6074 34.7741ZM25.4805 34.1528L24.6834 32.6891L25.4805 34.1528ZM33.4882 28.8771L31.8351 28.6649V28.6649L33.4882 28.8771ZM32.8742 31.6481L34.3187 32.4796L32.8742 31.6481ZM28.8771 33.4881L28.665 31.835H28.665L28.8771 33.4881ZM31.6482 32.8742L32.4796 34.3186L31.6482 32.8742ZM34.7742 24.6074L33.4552 23.5885V23.5885L34.7742 24.6074ZM34.1528 25.4805L32.6892 24.6833L34.1528 25.4805ZM33.7048 27.189L35.3579 27.4012V27.4012L33.7048 27.189ZM33.8828 26.1323L32.2842 25.661L33.8828 26.1323ZM35.8146 16.7395L37.1335 15.7206V15.7206L35.8146 16.7395ZM37.3399 19.1331L35.7306 19.5666L37.3399 19.1331ZM35.8146 23.2606L37.1335 24.2795L35.8146 23.2606ZM37.3399 20.867L35.7306 20.4335L37.3399 20.867ZM33.7048 12.8111L35.3579 12.5989V12.5989L33.7048 12.8111ZM33.8828 13.8678L32.2842 14.3391L33.8828 13.8678ZM34.7742 15.3927L33.4552 16.4116V16.4116L34.7742 15.3927ZM34.1528 14.5196L32.6892 15.3168L34.1528 14.5196ZM28.8771 6.51198L28.665 8.16509H28.665L28.8771 6.51198ZM31.6482 7.12594L32.4796 5.68148V5.68148L31.6482 7.12594ZM33.4882 11.1231L31.8351 11.3352V11.3352L33.4882 11.1231ZM32.8742 8.35197L31.4298 9.18342L32.8742 8.35197ZM24.6074 5.226L23.5885 6.54493V6.54493L24.6074 5.226ZM25.4805 5.84733L24.6834 7.31099L25.4805 5.84733ZM27.1891 6.29535L27.4012 4.64224L27.1891 6.29535ZM26.1323 6.11732L26.6036 4.51867L26.1323 6.11732ZM23.2606 4.18555L24.2795 2.86662V2.86662L23.2606 4.18555ZM20.867 2.66024L20.4336 4.26955L20.867 2.66024ZM16.7396 4.18555L15.7207 2.86662L15.7207 2.86662L16.7396 4.18555ZM19.1332 2.66024L19.5666 4.26955L19.1332 2.66024ZM19.6217 24.4022L26.1786 17.8452L23.8216 15.4882L17.2646 22.0452L19.6217 24.4022ZM19.3075 21.9721L16.0915 19.1857L13.9087 21.705L17.1248 24.4914L19.3075 21.9721ZM17.2646 22.0452C17.821 21.4888 18.7128 21.4569 19.3075 21.9721L17.1248 24.4914C17.8517 25.1212 18.9416 25.0822 19.6217 24.4022L17.2646 22.0452ZM22.2417 5.50449L23.5885 6.54493L25.6263 3.90706L24.2795 2.86662L22.2417 5.50449ZM26.9769 7.94846L28.665 8.16509L29.0893 4.85887L27.4012 4.64224L26.9769 7.94846ZM31.8351 11.3352L32.0517 13.0232L35.3579 12.5989L35.1413 10.9109L31.8351 11.3352ZM33.4552 16.4116L34.4957 17.7584L37.1335 15.7206L36.0931 14.3738L33.4552 16.4116ZM34.4957 22.2417L33.4552 23.5885L36.0931 25.6263L37.1335 24.2795L34.4957 22.2417ZM32.0517 26.9769L31.8351 28.6649L35.1413 29.0892L35.3579 27.4012L32.0517 26.9769ZM28.665 31.835L26.9769 32.0517L27.4012 35.3579L29.0893 35.1412L28.665 31.835ZM23.5885 33.4552L22.2417 34.4956L24.2795 37.1335L25.6263 36.093L23.5885 33.4552ZM17.7585 34.4956L16.4117 33.4552L14.3739 36.093L15.7207 37.1335L17.7585 34.4956ZM13.0233 32.0517L11.3352 31.835L10.9109 35.1412L12.599 35.3579L13.0233 32.0517ZM8.16513 28.6649L7.9485 26.9769L4.64228 27.4012L4.85891 29.0892L8.16513 28.6649ZM6.54498 23.5885L5.50454 22.2417L2.86666 24.2795L3.9071 25.6263L6.54498 23.5885ZM5.50454 17.7584L6.54498 16.4116L3.9071 14.3738L2.86666 15.7206L5.50454 17.7584ZM7.9485 13.0232L8.16513 11.3352L4.85892 10.9109L4.64228 12.5989L7.9485 13.0232ZM11.3352 8.16509L13.0233 7.94846L12.599 4.64224L10.9109 4.85887L11.3352 8.16509ZM16.4117 6.54493L17.7585 5.50449L15.7207 2.86662L14.3739 3.90706L16.4117 6.54493ZM13.0233 7.94846C13.507 7.88637 13.9277 7.83725 14.3391 7.71597L13.3966 4.51867C13.2984 4.54761 13.1845 4.5671 12.599 4.64224L13.0233 7.94846ZM14.3739 3.90706C13.9067 4.26794 13.8124 4.33472 13.7225 4.38368L15.3168 7.31099C15.6935 7.10585 16.0257 6.8431 16.4117 6.54493L14.3739 3.90706ZM14.3391 7.71597C14.6784 7.61594 15.0062 7.48019 15.3168 7.31099L13.7225 4.38368C13.6189 4.44008 13.5097 4.48533 13.3966 4.51867L14.3391 7.71597ZM8.16513 11.3352C8.37228 9.72108 8.44478 9.40174 8.57045 9.18342L5.68152 7.52052C5.14227 8.45737 5.0271 9.60036 4.85892 10.9109L8.16513 11.3352ZM10.9109 4.85887C9.60041 5.02706 8.45741 5.14222 7.52057 5.68148L9.18346 8.5704C9.40179 8.44474 9.72112 8.37223 11.3352 8.16509L10.9109 4.85887ZM8.57045 9.18342C8.71714 8.92858 8.92863 8.71709 9.18346 8.5704L7.52057 5.68148C6.75606 6.12154 6.12158 6.75602 5.68152 7.52052L8.57045 9.18342ZM6.54498 16.4116C6.84314 16.0257 7.10589 15.6935 7.31104 15.3168L4.38372 13.7224C4.33477 13.8123 4.26799 13.9067 3.9071 14.3738L6.54498 16.4116ZM4.64228 12.5989C4.56714 13.1844 4.54766 13.2984 4.51872 13.3965L7.71602 14.3391C7.83729 13.9277 7.88642 13.507 7.9485 13.0232L4.64228 12.5989ZM7.31104 15.3168C7.48024 15.0061 7.61599 14.6784 7.71602 14.3391L4.51872 13.3965C4.48538 13.5096 4.44012 13.6189 4.38372 13.7224L7.31104 15.3168ZM5.50454 22.2417C4.50966 20.9538 4.33512 20.6768 4.2696 20.4335L1.05098 21.3005C1.33211 22.3442 2.0589 23.2339 2.86666 24.2795L5.50454 22.2417ZM2.86666 15.7206C2.0589 16.7662 1.33211 17.6559 1.05098 18.6997L4.2696 19.5666C4.33512 19.3233 4.50966 19.0463 5.50454 17.7584L2.86666 15.7206ZM4.2696 20.4335C4.19313 20.1496 4.19313 19.8505 4.2696 19.5666L1.05098 18.6997C0.821557 19.5514 0.821557 20.4487 1.05098 21.3005L4.2696 20.4335ZM7.9485 26.9769C7.88642 26.4931 7.83729 26.0724 7.71602 25.661L4.51872 26.6036C4.54766 26.7017 4.56714 26.8157 4.64228 27.4012L7.9485 26.9769ZM3.9071 25.6263C4.26799 26.0934 4.33477 26.1878 4.38372 26.2777L7.31104 24.6833C7.10589 24.3067 6.84314 23.9744 6.54498 23.5885L3.9071 25.6263ZM7.71602 25.661C7.61599 25.3217 7.48024 24.994 7.31104 24.6833L4.38372 26.2777C4.44012 26.3812 4.48537 26.4905 4.51872 26.6036L7.71602 25.661ZM11.3352 31.835C9.72113 31.6279 9.40179 31.5554 9.18346 31.4297L7.52057 34.3186C8.45741 34.8579 9.6004 34.9731 10.9109 35.1412L11.3352 31.835ZM4.85891 29.0892C5.0271 30.3997 5.14227 31.5427 5.68152 32.4796L8.57045 30.8167C8.44478 30.5984 8.37228 30.279 8.16513 28.6649L4.85891 29.0892ZM9.18346 31.4297C8.92863 31.283 8.71714 31.0715 8.57045 30.8167L5.68153 32.4796C6.12158 33.2441 6.75606 33.8786 7.52057 34.3186L9.18346 31.4297ZM16.4117 33.4552C16.0257 33.157 15.6935 32.8943 15.3168 32.6891L13.7225 35.6164C13.8124 35.6654 13.9067 35.7322 14.3739 36.093L16.4117 33.4552ZM12.599 35.3579C13.1845 35.433 13.2984 35.4525 13.3966 35.4814L14.3391 32.2841C13.9277 32.1629 13.507 32.1137 13.0233 32.0517L12.599 35.3579ZM15.3168 32.6891C15.0062 32.5199 14.6785 32.3842 14.3391 32.2841L13.3966 35.4814C13.5097 35.5148 13.6189 35.56 13.7225 35.6164L15.3168 32.6891ZM22.2417 34.4956C20.9539 35.4905 20.6768 35.665 20.4336 35.7306L21.3005 38.9492C22.3443 38.668 23.2339 37.9413 24.2795 37.1335L22.2417 34.4956ZM15.7207 37.1335C16.7663 37.9413 17.6559 38.668 18.6997 38.9492L19.5666 35.7306C19.3234 35.665 19.0463 35.4905 17.7585 34.4956L15.7207 37.1335ZM20.4336 35.7306C20.1497 35.807 19.8506 35.807 19.5666 35.7306L18.6997 38.9492C19.5514 39.1786 20.4487 39.1786 21.3005 38.9492L20.4336 35.7306ZM26.9769 32.0517C26.4932 32.1137 26.0725 32.1629 25.6611 32.2841L26.6036 35.4814C26.7018 35.4525 26.8157 35.433 27.4012 35.3579L26.9769 32.0517ZM25.6263 36.093C26.0935 35.7322 26.1878 35.6654 26.2777 35.6164L24.6834 32.6891C24.3067 32.8943 23.9745 33.157 23.5885 33.4552L25.6263 36.093ZM25.6611 32.2841C25.3217 32.3842 24.994 32.5199 24.6834 32.6891L26.2777 35.6164C26.3813 35.56 26.4905 35.5148 26.6036 35.4814L25.6611 32.2841ZM31.8351 28.6649C31.6279 30.279 31.5554 30.5984 31.4298 30.8167L34.3187 32.4796C34.8579 31.5427 34.9731 30.3997 35.1413 29.0892L31.8351 28.6649ZM29.0893 35.1412C30.3998 34.9731 31.5428 34.8579 32.4796 34.3186L30.8167 31.4297C30.5984 31.5554 30.2791 31.6279 28.665 31.835L29.0893 35.1412ZM31.4298 30.8167C31.2831 31.0715 31.0716 31.283 30.8167 31.4297L32.4796 34.3186C33.2441 33.8786 33.8786 33.2441 34.3187 32.4796L31.4298 30.8167ZM33.4552 23.5885C33.1571 23.9744 32.8943 24.3067 32.6892 24.6833L35.6165 26.2777C35.6654 26.1878 35.7322 26.0934 36.0931 25.6263L33.4552 23.5885ZM35.3579 27.4012C35.4331 26.8156 35.4525 26.7017 35.4815 26.6036L32.2842 25.661C32.1629 26.0724 32.1138 26.4931 32.0517 26.9769L35.3579 27.4012ZM32.6892 24.6833C32.52 24.994 32.3842 25.3217 32.2842 25.661L35.4815 26.6036C35.5148 26.4905 35.5601 26.3812 35.6165 26.2777L32.6892 24.6833ZM34.4957 17.7584C35.4905 19.0463 35.6651 19.3233 35.7306 19.5666L38.9492 18.6997C38.6681 17.6559 37.9413 16.7662 37.1335 15.7206L34.4957 17.7584ZM37.1335 24.2795C37.9413 23.2339 38.6681 22.3442 38.9492 21.3005L35.7306 20.4335C35.6651 20.6768 35.4905 20.9538 34.4957 22.2417L37.1335 24.2795ZM35.7306 19.5666C35.8071 19.8505 35.8071 20.1496 35.7306 20.4335L38.9492 21.3005C39.1786 20.4487 39.1786 19.5514 38.9492 18.6997L35.7306 19.5666ZM32.0517 13.0232C32.1138 13.507 32.1629 13.9277 32.2842 14.3391L35.4815 13.3965C35.4525 13.2984 35.4331 13.1845 35.3579 12.5989L32.0517 13.0232ZM36.0931 14.3738C35.7322 13.9067 35.6654 13.8123 35.6165 13.7224L32.6892 15.3168C32.8943 15.6935 33.1571 16.0257 33.4552 16.4116L36.0931 14.3738ZM32.2842 14.3391C32.3842 14.6784 32.52 15.0061 32.6892 15.3168L35.6165 13.7224C35.5601 13.6189 35.5148 13.5096 35.4815 13.3965L32.2842 14.3391ZM28.665 8.16509C30.2791 8.37223 30.5984 8.44474 30.8167 8.5704L32.4796 5.68148C31.5428 5.14222 30.3998 5.02706 29.0893 4.85887L28.665 8.16509ZM35.1413 10.9109C34.9731 9.60036 34.8579 8.45737 34.3187 7.52052L31.4298 9.18342C31.5554 9.40174 31.6279 9.72108 31.8351 11.3352L35.1413 10.9109ZM30.8167 8.5704C31.0716 8.71709 31.2831 8.92858 31.4298 9.18342L34.3187 7.52052C33.8786 6.75602 33.2441 6.12154 32.4796 5.68148L30.8167 8.5704ZM23.5885 6.54493C23.9745 6.8431 24.3067 7.10585 24.6834 7.31099L26.2777 4.38368C26.1878 4.33472 26.0935 4.26795 25.6263 3.90706L23.5885 6.54493ZM27.4012 4.64224C26.8157 4.5671 26.7018 4.54761 26.6036 4.51867L25.6611 7.71597C26.0725 7.83725 26.4932 7.88637 26.9769 7.94846L27.4012 4.64224ZM24.6834 7.31099C24.994 7.48019 25.3218 7.61594 25.6611 7.71597L26.6036 4.51867C26.4905 4.48533 26.3813 4.44008 26.2777 4.38368L24.6834 7.31099ZM24.2795 2.86662C23.2339 2.05885 22.3443 1.33207 21.3005 1.05093L20.4336 4.26955C20.6768 4.33507 20.9539 4.50961 22.2417 5.50449L24.2795 2.86662ZM17.7585 5.50449C19.0463 4.50961 19.3234 4.33507 19.5666 4.26955L18.6997 1.05093C17.6559 1.33207 16.7663 2.05885 15.7207 2.86662L17.7585 5.50449ZM21.3005 1.05093C20.4487 0.821511 19.5515 0.821511 18.6997 1.05093L19.5666 4.26955C19.8506 4.19308 20.1496 4.19308 20.4336 4.26955L21.3005 1.05093Z" fill="#FF671D"/>
</svg>
